<svg width="17" height="17" viewBox="0 0 20 20" fill="none" xmlns="http://www.w3.org/2000/svg">
<path d="M17.6906 15.3235C17.4023 15.9894 17.0612 16.6024 16.6659 17.1659C16.127 17.9341 15.6859 18.4659 15.3459 18.7612C14.8188 19.2459 14.2541 19.4941 13.6494 19.5082C13.2153 19.5082 12.6918 19.3847 12.0823 19.1341C11.4709 18.8847 10.909 18.7612 10.3953 18.7612C9.85646 18.7612 9.27858 18.8847 8.66046 19.1341C8.0414 19.3847 7.5427 19.5153 7.1614 19.5282C6.58152 19.5529 6.00352 19.2977 5.42658 18.7612C5.05834 18.44 4.59775 17.8894 4.04599 17.1094C3.45399 16.2765 2.96728 15.3106 2.58599 14.2094C2.17764 13.02 1.97293 11.8682 1.97293 10.7532C1.97293 9.47589 2.24893 8.37424 2.80175 7.45106C3.23623 6.70953 3.81422 6.12459 4.53764 5.69518C5.26105 5.26577 6.0427 5.04694 6.88446 5.03294C7.34505 5.03294 7.94905 5.17541 8.69964 5.45541C9.44811 5.73636 9.92869 5.87883 10.1394 5.87883C10.2969 5.87883 10.8308 5.71224 11.7359 5.38012C12.5918 5.07212 13.3141 4.94459 13.9059 4.99483C15.5094 5.12424 16.7141 5.75636 17.5153 6.89518C16.0812 7.76412 15.3718 8.98118 15.3859 10.5425C15.3988 11.7586 15.84 12.7706 16.707 13.5741C17.1 13.9471 17.5388 14.2353 18.027 14.44C17.9212 14.7471 17.8094 15.0412 17.6906 15.3235ZM14.0129 0.851768C14.0129 1.80496 13.6647 2.69494 12.9706 3.51871C12.1329 4.498 11.1198 5.06389 10.021 4.97459C10.007 4.86024 9.99893 4.73989 9.99893 4.61342C9.99893 3.69836 10.3973 2.71906 11.1047 1.91836C11.4579 1.51294 11.907 1.17585 12.4518 0.906945C12.9953 0.642051 13.5094 0.495557 13.9929 0.470474C14.007 0.597898 14.0129 0.725345 14.0129 0.851768Z" fill="black"/>
</svg>
