<svg width="30" height="30" viewBox="0 0 16 16" fill="none" xmlns="http://www.w3.org/2000/svg">
<path d="M2.75 4.1095V11.891C2.75 12.6255 3.328 13.2035 4.0625 13.2035H11.844C12.2035 13.2035 12.547 13.0315 12.766 12.813C13.0005 12.5785 13.1565 12.2815 13.1565 11.891V4.1095C13.1565 3.375 12.5785 2.797 11.844 2.797H4.0625C3.672 2.797 3.375 2.9535 3.1405 3.1875C2.9215 3.4065 2.75 3.75 2.75 4.1095ZM4.1565 5.1405C4.1565 4.6405 4.563 4.203 5.063 4.203C5.5785 4.203 6.0005 4.6405 6.0005 5.1405C6.0005 5.656 5.5785 6.0625 5.063 6.0625C4.563 6.0625 4.1565 5.656 4.1565 5.1405ZM6.672 11.5625V6.797C6.672 6.6875 6.7815 6.594 6.8595 6.594H8.1875C8.375 6.594 8.375 6.813 8.375 6.9535C8.75 6.5785 9.2345 6.4845 9.7345 6.4845C10.9535 6.4845 11.7345 7.0625 11.7345 8.344V11.563C11.7345 11.6725 11.6405 11.766 11.547 11.766H10.172C10.0625 11.766 9.9845 11.6565 9.9845 11.563V8.6565C9.9845 8.172 9.844 7.9065 9.297 7.9065C8.6095 7.9065 8.4375 8.3595 8.4375 8.969V11.563C8.4375 11.6725 8.328 11.766 8.2185 11.766H6.859C6.781 11.766 6.6715 11.6565 6.6715 11.563L6.672 11.5625ZM4.1875 11.5625V6.797C4.1875 6.6875 4.297 6.594 4.375 6.594H5.7345C5.8595 6.594 5.9375 6.672 5.9375 6.797V11.5625C5.9375 11.672 5.8435 11.7655 5.7345 11.7655H4.375C4.281 11.7655 4.1875 11.656 4.1875 11.5625Z" fill="rgb(209 213 219)"/>
</svg>
