<svg width='35' viewBox="0 0 278 382" fill="none" xmlns="http://www.w3.org/2000/svg">
<path d="M122.64 63.84C121.93 62.99 80.79 43.91 43.53 72.34C9.28 98.48 -2.61 147.61 1.94 148.79C7.51 150.23 22.77 126.79 52.06 113.9C62.45 109.33 78.98 113.9 78.98 113.9L122.64 63.84Z" fill="#060606"/>
<path opacity="0.1" d="M79 113.89C74.0948 112.642 69.0608 111.971 64 111.89C70.46 98.37 82.52 73.15 90.35 56.81C108.78 56.98 122.28 63.37 122.69 63.81L79 113.89Z" fill="black"/>
<path d="M190.41 143.77C191.13 144.61 203.23 188.32 169.08 220.42C137.69 249.94 87.28 253.63 86.86 248.95C86.35 243.22 111.98 232 129.48 205.21C135.68 195.71 133.89 178.65 133.89 178.65L190.41 143.77Z" fill="#060606"/>
<path opacity="0.1" d="M192 177.05L133.34 194.12C134.124 189.002 134.295 183.809 133.85 178.65L190.37 143.77C190.82 144.25 195 158.74 192 177.05Z" fill="black"/>
<path d="M94.63 197.2L54.45 149.81C54.45 149.81 75.45 93.62 125.21 55.88C150.08 37.05 179.21 22.96 205.38 13.64C241.43 0.719991 271.59 -3.00001 276.26 2.47999C280.93 7.95999 272.26 37.14 253.68 70.61C240.19 94.82 221.51 121.3 198.87 142.76C153.49 185.72 94.63 197.2 94.63 197.2Z" fill="#C7C7C7"/>
<path d="M192.24 122.47C186.836 127.057 180.192 129.937 173.151 130.748C166.109 131.558 158.985 130.261 152.68 127.022C146.375 123.782 141.173 118.745 137.731 112.549C134.29 106.352 132.764 99.2736 133.346 92.2092C133.928 85.1448 136.593 78.4119 141.003 72.8623C145.412 67.3126 151.369 63.1956 158.119 61.0322C164.869 58.8687 172.109 58.756 178.924 60.7083C185.738 62.6607 191.82 66.5903 196.4 72C202.533 79.2478 205.54 88.6331 204.76 98.0955C203.98 107.558 199.477 116.324 192.24 122.47Z" fill="#A6A6A6"/>
<path d="M194.2 119.14C188.795 123.723 182.152 126.599 175.111 127.407C168.071 128.214 160.949 126.915 154.647 123.675C148.345 120.435 143.145 115.399 139.705 109.203C136.265 103.008 134.739 95.931 135.321 88.8684C135.903 81.8058 138.566 75.0743 142.973 69.5252C147.381 63.9761 153.335 59.8586 160.082 57.6934C166.83 55.5282 174.068 55.4125 180.881 57.361C187.695 59.3095 193.777 63.2346 198.36 68.64C204.502 75.8895 207.515 85.2815 206.735 94.7512C205.955 104.221 201.446 112.993 194.2 119.14Z" fill="#060606"/>
<path d="M187.11 110.75C183.364 113.935 178.758 115.937 173.874 116.503C168.991 117.069 164.049 116.173 159.674 113.93C155.299 111.686 151.688 108.196 149.298 103.899C146.908 99.6029 145.846 94.6941 146.246 89.794C146.646 84.8939 148.491 80.2226 151.547 76.3713C154.603 72.5201 158.733 69.6618 163.414 68.1583C168.095 66.6548 173.117 66.5736 177.844 67.925C182.571 69.2763 186.791 71.9995 189.97 75.75C194.227 80.7726 196.317 87.2794 195.781 93.8417C195.245 100.404 192.126 106.485 187.11 110.75Z" fill="white"/>
<path d="M187.12 110.75C184.775 112.747 182.079 114.289 179.17 115.3L159.17 113.67C156.464 112.203 154.055 110.243 152.07 107.89C150.612 106.182 149.397 104.281 148.46 102.24L191.56 105.75C190.316 107.612 188.822 109.294 187.12 110.75Z" fill="#EBEBEB"/>
<path d="M192.12 78.68L152.34 75.44C153.141 74.5192 154.01 73.6601 154.94 72.87C159.962 68.6102 166.469 66.5186 173.032 67.0549C179.595 67.5912 185.677 70.7115 189.94 75.73C190.741 76.6565 191.469 77.6427 192.12 78.68Z" fill="#EBEBEB"/>
<path d="M194.28 100.6L146.68 96.71C146.522 95.9804 146.405 95.2426 146.33 94.5L194.97 98.5C194.78 99.18 194.54 99.89 194.28 100.6Z" fill="#EBEBEB"/>
<path d="M253.68 70.61L205.38 13.61C241.43 0.719991 271.59 -3.00001 276.26 2.47999C280.93 7.95999 272.3 37.14 253.68 70.61Z" fill="#060606"/>
<path d="M219.58 18.45C219.265 18.7184 218.878 18.8873 218.467 18.9354C218.056 18.9834 217.64 18.9084 217.272 18.7199C216.903 18.5314 216.599 18.2378 216.398 17.8763C216.197 17.5149 216.107 17.1018 216.141 16.6895C216.175 16.2771 216.33 15.884 216.587 15.56C216.844 15.236 217.192 14.9956 217.586 14.8693C217.98 14.743 218.403 14.7364 218.8 14.8505C219.198 14.9645 219.553 15.1941 219.82 15.51C220.177 15.9321 220.352 16.4785 220.307 17.0295C220.262 17.5806 220.001 18.0913 219.58 18.45Z" fill="white"/>
<path d="M228.17 28.59C227.961 28.7735 227.718 28.9135 227.455 29.0019C227.192 29.0904 226.913 29.1254 226.636 29.105C226.359 29.0846 226.089 29.0092 225.841 28.8831C225.594 28.7571 225.374 28.5829 225.194 28.3709C225.015 28.1588 224.88 27.9131 224.796 27.6482C224.713 27.3832 224.683 27.1042 224.709 26.8276C224.734 26.551 224.815 26.2823 224.946 26.0371C225.076 25.792 225.255 25.5754 225.47 25.4C225.894 25.0543 226.438 24.889 226.983 24.9396C227.528 24.9901 228.031 25.2525 228.385 25.6704C228.739 26.0882 228.914 26.6282 228.874 27.1741C228.834 27.7201 228.581 28.2285 228.17 28.59Z" fill="white"/>
<path d="M236.76 38.72C236.442 38.979 236.055 39.1387 235.647 39.1793C235.239 39.2199 234.828 39.1396 234.465 38.9484C234.103 38.7572 233.804 38.4635 233.607 38.1039C233.41 37.7443 233.323 37.3346 233.357 36.926C233.391 36.5174 233.545 36.1278 233.799 35.8058C234.052 35.4838 234.395 35.2435 234.785 35.115C235.174 34.9864 235.593 34.9752 235.988 35.0828C236.384 35.1904 236.739 35.412 237.01 35.72C237.197 35.9305 237.339 36.1767 237.428 36.4437C237.517 36.7108 237.551 36.9931 237.527 37.2735C237.504 37.554 237.424 37.8268 237.292 38.0754C237.16 38.3241 236.979 38.5433 236.76 38.72Z" fill="white"/>
<path d="M245.36 48.86C245.043 49.1201 244.656 49.2813 244.249 49.3233C243.841 49.3654 243.429 49.2865 243.066 49.0965C242.702 48.9065 242.403 48.6138 242.205 48.2548C242.006 47.8958 241.918 47.4864 241.951 47.0777C241.984 46.6689 242.136 46.2788 242.389 45.9559C242.641 45.633 242.984 45.3916 243.373 45.2618C243.762 45.132 244.18 45.1195 244.576 45.2259C244.972 45.3322 245.328 45.5528 245.6 45.86C245.786 46.0705 245.928 46.3163 246.017 46.5828C246.106 46.8493 246.14 47.131 246.118 47.411C246.095 47.691 246.017 47.9637 245.886 48.2126C245.756 48.4616 245.577 48.6818 245.36 48.86Z" fill="white"/>
<path d="M254 59C253.685 59.267 253.298 59.4347 252.887 59.4817C252.477 59.5288 252.061 59.4531 251.694 59.2643C251.327 59.0756 251.023 58.7821 250.822 58.4211C250.622 58.06 250.532 57.6476 250.566 57.2358C250.599 56.8241 250.754 56.4315 251.011 56.1076C251.267 55.7838 251.614 55.5432 252.007 55.4163C252.4 55.2894 252.822 55.2819 253.22 55.3947C253.617 55.5075 253.972 55.7355 254.24 56.05C254.418 56.2593 254.554 56.5017 254.638 56.7633C254.722 57.025 254.754 57.3007 254.732 57.5748C254.71 57.8488 254.634 58.1158 254.508 58.3603C254.382 58.6049 254.21 58.8223 254 59Z" fill="white"/>
<path d="M66 148.7C65.5755 149.046 65.0324 149.211 64.4873 149.16C63.9422 149.11 63.4387 148.847 63.085 148.43C62.7313 148.012 62.5557 147.472 62.5959 146.926C62.6361 146.38 62.8889 145.872 63.3 145.51C63.5086 145.327 63.7517 145.186 64.015 145.098C64.2784 145.01 64.5567 144.975 64.8338 144.995C65.1108 145.015 65.381 145.091 65.6286 145.217C65.8762 145.343 66.0961 145.517 66.2756 145.729C66.4551 145.941 66.5905 146.187 66.6739 146.452C66.7573 146.717 66.787 146.996 66.7614 147.272C66.7357 147.549 66.6552 147.818 66.5244 148.063C66.3937 148.308 66.2154 148.525 66 148.7Z" fill="#A6A6A6"/>
<path d="M74.64 158.84C74.323 159.1 73.9364 159.261 73.5285 159.303C73.1206 159.345 72.7093 159.266 72.3459 159.076C71.9825 158.886 71.683 158.594 71.4847 158.235C71.2864 157.876 71.1982 157.466 71.2309 157.058C71.2636 156.649 71.4158 156.259 71.6686 155.936C71.9214 155.613 72.2637 155.372 72.6527 155.242C73.0417 155.112 73.4603 155.099 73.8563 155.206C74.2524 155.312 74.6084 155.533 74.88 155.84C75.0661 156.05 75.2078 156.296 75.2967 156.563C75.3857 156.829 75.42 157.111 75.3976 157.391C75.3752 157.671 75.2965 157.944 75.1664 158.193C75.0362 158.442 74.8572 158.662 74.64 158.84Z" fill="#A6A6A6"/>
<path d="M83.23 169C82.9148 169.267 82.5275 169.435 82.1171 169.482C81.7067 169.529 81.2915 169.453 80.924 169.264C80.5565 169.076 80.2533 168.782 80.0525 168.421C79.8517 168.06 79.7624 167.648 79.7959 167.236C79.8294 166.824 79.9842 166.432 80.2407 166.108C80.4972 165.784 80.8439 165.543 81.2371 165.416C81.6302 165.289 82.0522 165.282 82.4496 165.395C82.847 165.507 83.2021 165.736 83.47 166.05C83.6483 166.259 83.7835 166.502 83.868 166.763C83.9524 167.025 83.9844 167.301 83.9621 167.575C83.9399 167.849 83.8637 168.116 83.7381 168.36C83.6124 168.605 83.4398 168.822 83.23 169Z" fill="#A6A6A6"/>
<path d="M91.82 179.11C91.503 179.37 91.1164 179.531 90.7085 179.573C90.3006 179.615 89.8893 179.536 89.5259 179.346C89.1625 179.156 88.863 178.864 88.6647 178.505C88.4664 178.146 88.3782 177.736 88.4109 177.328C88.4436 176.919 88.5958 176.529 88.8486 176.206C89.1014 175.883 89.4437 175.642 89.8327 175.512C90.2217 175.382 90.6403 175.369 91.0363 175.476C91.4324 175.582 91.7884 175.803 92.06 176.11C92.2461 176.32 92.3878 176.566 92.4767 176.833C92.5657 177.099 92.6 177.381 92.5775 177.661C92.5551 177.941 92.4765 178.214 92.3464 178.463C92.2162 178.712 92.0372 178.932 91.82 179.11Z" fill="#A6A6A6"/>
<path d="M100.41 189.24C100.092 189.499 99.705 189.659 99.297 189.699C98.889 189.74 98.478 189.66 98.1153 189.468C97.7526 189.277 97.4541 188.983 97.2571 188.624C97.0601 188.264 96.9732 187.855 97.0072 187.446C97.0413 187.037 97.1948 186.648 97.4486 186.326C97.7025 186.004 98.0454 185.764 98.4348 185.635C98.8241 185.506 99.2427 185.495 99.6384 185.603C100.034 185.71 100.389 185.932 100.66 186.24C100.847 186.45 100.989 186.697 101.078 186.964C101.167 187.231 101.201 187.513 101.177 187.794C101.154 188.074 101.074 188.347 100.942 188.595C100.81 188.844 100.629 189.063 100.41 189.24Z" fill="#A6A6A6"/>
<path opacity="0.2" d="M274 1.06999C246.18 3.06999 198 19.91 147.31 59.67C109.85 89.04 82.52 140.44 69.78 167.89L54.45 149.81C54.45 149.81 75.45 93.62 125.21 55.88C150.08 37.05 179.21 22.96 205.38 13.64C237.69 2.04999 265.26 -2.15001 274 1.06999Z" fill="white"/>
<path d="M76.68 204.92L44.01 166.38L56.72 152.49L92.46 194.65L76.68 204.92Z" fill="#060606"/>
<path opacity="0.1" d="M92.46 194.65L84.77 199.65L51.86 157.8L56.72 152.5L92.46 194.65Z" fill="black"/>
<path d="M253.17 75.76L238.24 74.76L231.22 88.98L231.86 73.14L218.28 66.86L233.36 67.01L240.22 53.64L239.86 68.66L253.17 75.76Z" fill="#FCFCFC"/>
<path d="M249.5 20.61L241.15 20.06L237.23 28.01L237.59 19.15L230 15.64L238.43 15.72L242.26 8.25L242.06 16.65L249.5 20.61Z" fill="#FCFCFC"/>
<path d="M181.98 190.13L173.64 189.57L169.72 197.52L170.07 188.67L162.48 185.16L170.91 185.24L174.75 177.77L174.54 186.17L181.98 190.13Z" fill="#FCFCFC"/>
<path d="M33.46 116.38L25.11 115.82L21.19 123.77L21.55 114.92L13.96 111.41L22.39 111.49L26.22 104.02L26.02 112.41L33.46 116.38Z" fill="#FCFCFC"/>
<path opacity="0.6" d="M69.5 196.32C54.35 206.53 40.98 219.56 31.22 235.13C21.2058 250.778 15.5479 268.815 14.83 287.38C14.59 296.79 15.739 306.185 18.24 315.26C20.8134 324.504 24.7068 333.328 29.8 341.46C35.0154 349.737 41.2696 357.312 48.41 364C55.6775 370.799 63.6262 376.831 72.13 382C62.9578 377.808 54.2447 372.678 46.13 366.69C37.918 360.604 30.5238 353.485 24.13 345.51C10.8762 329.006 2.79757 308.952 0.910003 287.87C-0.969997 266.56 3.53 244.69 12.85 225.18C22.17 205.67 36.1 188.34 52.56 174.18L69.5 196.32Z" fill="#060606"/>
<path d="M43.59 219.55L37.63 220.65L36.3 226.93L34.97 220.65L29.01 219.54L34.95 218.09L36.3 212.16L37.66 218.09L43.59 219.55Z" fill="white"/>
<path d="M21.66 337.18L18.33 337.8L17.59 341.31L16.84 337.8L13.51 337.18L16.83 336.37L17.59 333.06L18.35 336.37L21.66 337.18Z" fill="white"/>
<path d="M19.87 306.71L16.54 307.32L15.8 310.84L15.06 307.32L11.72 306.71L15.04 305.9L15.8 302.58L16.56 305.9L19.87 306.71Z" fill="white"/>
<path d="M39.19 199.96L35.86 200.58L35.11 204.09L34.37 200.58L31.04 199.96L34.36 199.15L35.11 195.84L35.87 199.15L39.19 199.96Z" fill="white"/>
<path d="M29.54 344.78C29.3282 344.838 29.1411 344.963 29.0078 345.138C28.8745 345.312 28.8022 345.525 28.8022 345.745C28.8022 345.965 28.8745 346.178 29.0078 346.352C29.1411 346.527 29.3282 346.652 29.54 346.71C29.7518 346.652 29.9389 346.527 30.0722 346.352C30.2055 346.178 30.2778 345.965 30.2778 345.745C30.2778 345.525 30.2055 345.312 30.0722 345.138C29.9389 344.963 29.7518 344.838 29.54 344.78Z" fill="white"/>
<path d="M57.1 195.26C56.8882 195.318 56.7011 195.443 56.5678 195.618C56.4345 195.792 56.3622 196.005 56.3622 196.225C56.3622 196.445 56.4345 196.658 56.5678 196.832C56.7011 197.007 56.8882 197.132 57.1 197.19C57.3118 197.132 57.4989 197.007 57.6322 196.832C57.7655 196.658 57.8378 196.445 57.8378 196.225C57.8378 196.005 57.7655 195.792 57.6322 195.618C57.4989 195.443 57.3118 195.318 57.1 195.26Z" fill="white"/>
<path d="M5.12 281.37C4.90816 281.428 4.72114 281.553 4.58781 281.728C4.45449 281.902 4.38225 282.115 4.38225 282.335C4.38225 282.555 4.45449 282.768 4.58781 282.942C4.72114 283.117 4.90816 283.242 5.12 283.3C5.33185 283.242 5.51885 283.117 5.65218 282.942C5.78551 282.768 5.85775 282.555 5.85775 282.335C5.85775 282.115 5.78551 281.902 5.65218 281.728C5.51885 281.553 5.33185 281.428 5.12 281.37Z" fill="white"/>
<path d="M27.82 339.75C27.6526 339.77 27.4984 339.851 27.3865 339.977C27.2747 340.104 27.2129 340.266 27.2129 340.435C27.2129 340.604 27.2747 340.766 27.3865 340.893C27.4984 341.019 27.6526 341.1 27.82 341.12C27.9874 341.1 28.1416 341.019 28.2535 340.893C28.3653 340.766 28.4271 340.604 28.4271 340.435C28.4271 340.266 28.3653 340.104 28.2535 339.977C28.1416 339.851 27.9874 339.77 27.82 339.75Z" fill="white"/>
<path d="M4.77 247.63C4.58965 247.63 4.41669 247.702 4.28917 247.829C4.16164 247.957 4.09 248.13 4.09 248.31C4.09 248.49 4.16164 248.663 4.28917 248.791C4.41669 248.918 4.58965 248.99 4.77 248.99C4.95034 248.99 5.12331 248.918 5.25083 248.791C5.37836 248.663 5.45 248.49 5.45 248.31C5.45 248.13 5.37836 247.957 5.25083 247.829C5.12331 247.702 4.95034 247.63 4.77 247.63Z" fill="white"/>
<path d="M11.72 317.49C11.2516 317.524 10.8135 317.735 10.4937 318.079C10.174 318.423 9.99629 318.875 9.99629 319.345C9.99629 319.815 10.174 320.267 10.4937 320.611C10.8135 320.955 11.2516 321.166 11.72 321.2C12.1884 321.166 12.6265 320.955 12.9463 320.611C13.266 320.267 13.4437 319.815 13.4437 319.345C13.4437 318.875 13.266 318.423 12.9463 318.079C12.6265 317.735 12.1884 317.524 11.72 317.49Z" fill="white"/>
<path d="M13.51 241.35C13.0194 241.35 12.5488 241.545 12.2019 241.892C11.8549 242.239 11.66 242.709 11.66 243.2C11.66 243.691 11.8549 244.161 12.2019 244.508C12.5488 244.855 13.0194 245.05 13.51 245.05C14.0007 245.05 14.4712 244.855 14.8181 244.508C15.1651 244.161 15.36 243.691 15.36 243.2C15.36 242.709 15.1651 242.239 14.8181 241.892C14.4712 241.545 14.0007 241.35 13.51 241.35Z" fill="white"/>
</svg>
